HIERARCHY
ROOT Hips
{
	OFFSET 0.000000 0.000000 0.000000
	CHANNELS 6 Xposition Yposition Zposition Zrotation Yrotation Xrotation 
	JOINT LHipJoint
	{
		OFFSET 0.000000 0.000000 0.000000
		CHANNELS 3 Zrotation Yrotation Xrotation
		JOINT LeftUpLeg
		{
			OFFSET 1.363060 -1.794630 0.839290
			CHANNELS 3 Zrotation Yrotation Xrotation
			JOINT LeftLeg
			{
				OFFSET 2.448110 -6.726130 0.000000
				CHANNELS 3 Zrotation Yrotation Xrotation
				JOINT LeftFoot
				{
					OFFSET 2.562200 -7.039590 0.000000
					CHANNELS 3 Zrotation Yrotation Xrotation
					JOINT LeftToeBase
					{
						OFFSET 0.157640 -0.433110 2.322550
						CHANNELS 3 Zrotation Yrotation Xrotation
						End Site
						{
							OFFSET 0.000000 0.000000 0.000000
						}
					}
				}
			}
		}
	}
	JOINT RHipJoint
	{
		OFFSET 0.000000 0.000000 0.000000
		CHANNELS 3 Zrotation Yrotation Xrotation
		JOINT RightUpLeg
		{
			OFFSET -1.305520 -1.794630 0.839290
			CHANNELS 3 Zrotation Yrotation Xrotation
			JOINT RightLeg
			{
				OFFSET -2.542530 -6.985550 0.000000
				CHANNELS 3 Zrotation Yrotation Xrotation
				JOINT RightFoot
				{
					OFFSET -2.568260 -7.056230 0.000000
					CHANNELS 3 Zrotation Yrotation Xrotation
					JOINT RightToeBase
					{
						OFFSET -0.164730 -0.452590 2.363150
						CHANNELS 3 Zrotation Yrotation Xrotation
						End Site
						{
							OFFSET 0.000000 0.000000 0.000000
						}
					}
				}
			}
		}
	}
	JOINT LowerBack
	{
		OFFSET 0.000000 0.000000 0.000000
		CHANNELS 3 Zrotation Yrotation Xrotation
		JOINT Spine
		{
			OFFSET 0.028270 2.035590 -0.193380
			CHANNELS 3 Zrotation Yrotation Xrotation
			JOINT Spine1
			{
				OFFSET 0.056720 2.048850 -0.042750
				CHANNELS 3 Zrotation Yrotation Xrotation
				JOINT Neck
				{
					OFFSET 0.000000 0.000000 0.000000
					CHANNELS 3 Zrotation Yrotation Xrotation
					JOINT Neck1
					{
						OFFSET -0.054170 1.746240 0.172020
						CHANNELS 3 Zrotation Yrotation Xrotation
						JOINT Head
						{
							OFFSET 0.104070 1.761360 -0.123970
							CHANNELS 3 Zrotation Yrotation Xrotation
							End Site
							{
								OFFSET 0.000000 0.000000 0.000000
							}
						}
					}
				}
				JOINT LeftShoulder
				{
					OFFSET 0.000000 0.000000 0.000000
					CHANNELS 3 Zrotation Yrotation Xrotation
					JOINT LeftArm
					{
						OFFSET 3.362410 1.200890 -0.311210
						CHANNELS 3 Zrotation Yrotation Xrotation
						JOINT LeftForeArm
						{
							OFFSET 4.983000 -0.000000 -0.000000
							CHANNELS 3 Zrotation Yrotation Xrotation
							JOINT LeftHand
							{
								OFFSET 3.483560 -0.000000 -0.000000
								CHANNELS 3 Zrotation Yrotation Xrotation
								JOINT LeftFingerBase
								{
									OFFSET 0.000000 0.000000 0.000000
									CHANNELS 3 Zrotation Yrotation Xrotation
									JOINT LeftHandIndex1
									{
										OFFSET 0.715260 -0.000000 -0.000000
										CHANNELS 3 Zrotation Yrotation Xrotation
										End Site
										{
											OFFSET 0.000000 0.000000 0.000000
										}
									}
								}
								JOINT LThumb
								{
									OFFSET 0.000000 0.000000 0.000000
									CHANNELS 3 Zrotation Yrotation Xrotation
									End Site
									{
										OFFSET 0.000000 0.000000 0.000000
									}
								}
							}
						}
					}
				}
				JOINT RightShoulder
				{
					OFFSET 0.000000 0.000000 0.000000
					CHANNELS 3 Zrotation Yrotation Xrotation
					JOINT RightArm
					{
						OFFSET -3.136600 1.374050 -0.404650
						CHANNELS 3 Zrotation Yrotation Xrotation
						JOINT RightForeArm
						{
							OFFSET -5.241900 -0.000000 -0.000000
							CHANNELS 3 Zrotation Yrotation Xrotation
							JOINT RightHand
							{
								OFFSET -3.444170 -0.000000 -0.000000
								CHANNELS 3 Zrotation Yrotation Xrotation
								JOINT RightFingerBase
								{
									OFFSET 0.000000 0.000000 0.000000
									CHANNELS 3 Zrotation Yrotation Xrotation
									JOINT RightHandIndex1
									{
										OFFSET -0.622530 -0.000000 -0.000000
										CHANNELS 3 Zrotation Yrotation Xrotation
										End Site
										{
											OFFSET 0.000000 0.000000 0.000000
										}
									}
								}
								JOINT RThumb
								{
									OFFSET 0.000000 0.000000 0.000000
									CHANNELS 3 Zrotation Yrotation Xrotation
									End Site
									{
										OFFSET 0.000000 0.000000 0.000000
									}
								}
							}
						}
					}
				}
			}
		}
	}
}
MOTION
Frames: 10
Frame Time: 0.008333
52.198084 17.260390 17.582145 -177.041346 -46.178719 176.951109 3.523448 -0.112737 -1.819831 -18.080872 6.786221 2.329157 -0.405517 3.758054 10.185123 -0.289287 3.341315 -2.964041 0.100100 -2.039800 -5.615700 -5.175342 -0.113172 -1.695355 26.674937 2.534071 -3.478344 -0.761824 -9.230736 25.447896 1.306159 -9.581391 -14.700813 -0.043800 -1.350100 3.712700 3.593885 -0.533884 3.954284 1.101529 -0.579220 -0.864012 -3.083530 -0.257935 4.635691 0.250715 1.492449 -6.573631 3.819783 1.238240 15.963250 -1.586400 1.197900 7.117400 -1.698265 -2.043638 -0.127906 -76.878198 -3.354126 29.426547 8.109546 -20.460551 -2.487218 -1.306944 -1.469353 -16.402032 16.848328 9.566982 3.512700 -7.125000 0.000000 0.000000 -7.568100 40.985200 0.754200 4.751191 2.775455 -0.393809 77.512149 2.908973 24.045843 -9.833662 22.484052 -3.057225 1.384305 0.304427 2.256596 -17.980788 -5.797558 2.146900 7.125000 0.000000 0.000000 6.213800 -36.410400 1.318700 
52.196705 17.260072 17.582039 -177.077334 -46.165940 176.955621 3.526283 -0.112810 -1.822965 -18.113471 6.816570 2.338561 -0.402822 3.771656 10.219618 -0.288880 3.340701 -2.985482 0.105300 -2.092400 -5.761000 -5.173900 -0.114387 -1.697962 26.643602 2.508458 -3.453604 -0.763214 -9.226679 25.443959 1.320967 -9.625712 -14.661351 -0.039000 -1.273900 3.502800 3.556745 -0.543925 3.957080 1.101627 -0.593967 -0.855097 -3.074115 -0.265924 4.675012 0.264231 1.502589 -6.597455 3.808458 1.256362 15.953012 -1.598000 1.207700 7.113700 -1.695039 -2.039292 -0.125959 -76.905930 -3.373708 29.428314 8.135030 -20.491314 -2.493915 -1.304680 -1.452889 -16.471292 16.853712 9.366376 3.441600 -7.125000 0.000000 0.000000 -7.530700 40.760200 0.792400 4.752577 2.772670 -0.390078 77.513809 2.954648 24.137955 -9.863516 22.517016 -3.064502 1.375576 0.286756 2.222636 -17.994811 -5.546995 2.054100 7.125000 0.000000 0.000000 6.177900 -36.128900 1.353700 
52.197978 17.259860 17.583418 -177.025643 -46.162444 176.923124 3.524433 -0.113508 -1.822261 -18.072206 6.844652 2.306105 -0.401201 3.777545 10.237583 -0.287313 3.330506 -2.958069 0.109900 -2.137800 -5.886600 -5.176211 -0.113108 -1.697787 26.687804 2.528716 -3.462358 -0.761216 -9.227835 25.440298 1.320493 -9.629010 -14.676128 -0.042500 -1.330500 3.658800 3.595087 -0.542558 3.961883 1.106755 -0.593307 -0.855615 -3.061333 -0.265975 4.663215 0.241139 1.496787 -6.568478 3.798886 1.252796 15.938947 -1.599600 1.203300 7.096500 -1.687255 -2.041453 -0.125416 -76.953725 -3.382170 29.535275 8.170320 -20.534759 -2.505051 -1.307527 -1.458982 -16.559022 16.922188 9.428798 3.477600 -7.125000 0.000000 0.000000 -7.476600 40.833500 0.773100 4.752547 2.772861 -0.388383 77.497756 2.968610 24.159720 -9.886736 22.543333 -3.074660 1.384335 0.304898 2.203158 -18.003342 -5.792891 2.147700 7.125000 0.000000 0.000000 6.194000 -36.405900 1.315200 
52.197023 17.259966 17.583206 -177.060327 -46.157287 176.939792 3.527148 -0.113729 -1.824785 -18.103275 6.866315 2.309396 -0.399944 3.784870 10.254721 -0.286636 3.328981 -2.976564 0.113000 -2.167100 -5.967700 -5.174286 -0.113823 -1.699654 26.654495 2.510893 -3.450265 -0.762331 -9.225789 25.440063 1.322301 -9.630632 -14.659451 -0.040100 -1.293200 3.555800 3.574229 -0.538559 3.949146 1.102600 -0.588361 -0.849328 -3.076787 -0.262647 4.696361 0.259605 1.499282 -6.585720 3.797172 1.255721 15.943166 -1.604000 1.206400 7.099700 -1.689709 -2.037417 -0.123056 -76.951503 -3.415182 29.573981 8.158275 -20.515630 -2.496333 -1.309224 -1.436045 -16.552611 16.945124 9.170598 3.389200 -7.125000 0.000000 0.000000 -7.413400 40.545100 0.819500 4.750056 2.770011 -0.388365 77.511498 2.969492 24.243102 -9.934496 22.604415 -3.091111 1.381234 0.301588 2.132588 -18.015977 -5.724923 2.123500 7.125000 0.000000 0.000000 6.177200 -36.329900 1.323100 
52.197023 17.260072 17.583736 -177.060534 -46.154172 176.936269 3.527731 -0.114150 -1.825913 -18.105082 6.875469 2.303002 -0.398699 3.791060 10.270874 -0.286835 3.330727 -2.981700 0.115500 -2.191300 -6.034500 -5.174430 -0.113523 -1.700661 26.655437 2.514076 -3.445054 -0.762193 -9.225020 25.437898 1.327800 -9.649881 -14.654134 -0.039100 -1.275600 3.507600 3.571025 -0.541160 3.946364 1.103736 -0.592702 -0.845824 -3.071686 -0.265139 4.712217 0.258550 1.503653 -6.591129 3.791737 1.264123 15.940944 -1.607500 1.210400 7.097800 -1.686810 -2.036030 -0.121836 -76.977031 -3.438152 29.623432 8.168903 -20.526656 -2.497715 -1.306070 -1.429943 -16.589827 16.921043 9.096765 3.357600 -7.125000 0.000000 0.000000 -7.424700 40.460200 0.836300 4.749867 2.769060 -0.387251 77.507580 2.984395 24.309057 -9.967507 22.643773 -3.102372 1.381052 0.302498 2.091628 -18.026639 -5.724710 2.124600 7.125000 0.000000 0.000000 6.168200 -36.330300 1.321100 
52.197235 17.259966 17.584161 -177.058526 -46.152227 176.929613 3.527988 -0.114000 -1.826936 -18.105211 6.876699 2.311945 -0.398694 3.789831 10.267712 -0.288067 3.337258 -2.981245 0.115900 -2.194700 -6.043900 -5.174931 -0.113276 -1.701638 26.658325 2.520956 -3.438009 -0.762731 -9.225818 25.440374 1.331564 -9.665052 -14.655850 -0.038200 -1.261600 3.468900 3.567220 -0.544199 3.948212 1.104950 -0.597453 -0.842484 -3.065995 -0.267952 4.726205 0.257227 1.508218 -6.598797 3.786901 1.272972 15.940903 -1.610500 1.214600 7.098400 -1.683868 -2.034984 -0.120915 -77.002618 -3.460650 29.674408 8.180421 -20.538790 -2.499612 -1.300667 -1.426465 -16.623546 16.867331 9.051932 3.330600 -7.125000 0.000000 0.000000 -7.468300 40.406100 0.851300 4.749689 2.768629 -0.386324 77.503987 2.998974 24.369961 -9.998441 22.680246 -3.112908 1.380650 0.303494 2.055294 -18.032353 -5.725697 2.125700 7.125000 0.000000 0.000000 6.163600 -36.331700 1.319900 
52.197447 17.259966 17.584691 -177.052653 -46.152948 176.919985 3.528179 -0.114004 -1.827907 -18.100698 6.865885 2.319147 -0.398684 3.789861 10.268353 -0.288641 3.340192 -2.984294 0.114000 -2.177200 -5.995700 -5.175647 -0.112841 -1.702630 26.666208 2.528881 -3.432141 -0.762936 -9.226645 25.442263 1.335520 -9.681388 -14.660435 -0.037400 -1.248100 3.431800 3.566314 -0.548959 3.949764 1.106594 -0.604544 -0.839232 -3.059829 -0.271920 4.740724 0.255301 1.513917 -6.608878 3.782679 1.283255 15.942276 -1.612900 1.219500 7.100600 -1.680698 -2.033827 -0.120299 -77.030264 -3.481099 29.721684 8.194083 -20.553498 -2.502175 -1.294392 -1.422366 -16.655831 16.804159 8.999996 3.299400 -7.125000 0.000000 0.000000 -7.519900 40.343600 0.868900 4.749623 2.768296 -0.385346 77.500094 3.015603 24.427355 -10.026321 22.712767 -3.122236 1.380179 0.303686 2.023664 -18.040036 -5.718543 2.123900 7.125000 0.000000 0.000000 6.156700 -36.324000 1.319600 
52.197978 17.259966 17.585221 -177.043780 -46.153541 176.911172 3.528111 -0.114031 -1.828686 -18.093789 6.852570 2.325351 -0.398922 3.788565 10.265289 -0.289079 3.342021 -2.984123 0.111300 -2.151400 -5.924300 -5.176577 -0.112188 -1.703503 26.676579 2.540735 -3.428900 -0.763268 -9.228144 25.445487 1.337437 -9.691639 -14.669759 -0.037200 -1.245300 3.424100 3.565504 -0.553627 3.951416 1.108448 -0.611491 -0.836464 -3.052542 -0.275977 4.753569 0.252764 1.519144 -6.619427 3.778449 1.292864 15.944155 -1.615300 1.224000 7.103600 -1.677010 -2.032910 -0.120060 -77.059205 -3.499978 29.770891 8.211771 -20.573540 -2.506355 -1.287872 -1.420199 -16.694824 16.740052 8.968369 3.275400 -7.125000 0.000000 0.000000 -7.575600 40.303900 0.882900 4.749575 2.768238 -0.384411 77.496774 3.033194 24.476856 -10.050022 22.739970 -3.130196 1.379858 0.304147 2.000103 -18.045127 -5.717551 2.124100 7.125000 0.000000 0.000000 6.152500 -36.323100 1.318800 
52.198402 17.259966 17.585752 -177.038787 -46.155573 176.902493 3.528252 -0.113917 -1.829638 -18.088595 6.849209 2.331522 -0.399163 3.787211 10.262197 -0.288015 3.336288 -2.980784 0.109500 -2.133800 -5.875600 -5.177335 -0.111770 -1.704575 26.683295 2.547185 -3.424264 -0.763712 -9.229622 25.449392 1.338280 -9.697799 -14.678812 -0.037100 -1.243200 3.418200 3.562315 -0.558703 3.954380 1.109935 -0.618858 -0.833174 -3.045685 -0.280114 4.767991 0.249373 1.523838 -6.630555 3.775459 1.301689 15.946354 -1.616600 1.228200 7.106600 -1.673713 -2.031693 -0.119856 -77.088183 -3.517463 29.817529 8.231185 -20.595779 -2.511154 -1.284049 -1.415635 -16.732248 16.711383 8.911952 3.249500 -7.125000 0.000000 0.000000 -7.594200 40.238700 0.897400 4.749327 2.767940 -0.383221 77.494801 3.052464 24.518332 -10.070078 22.762637 -3.136758 1.379495 0.304714 1.982342 -18.047001 -5.719220 2.124900 7.125000 0.000000 0.000000 6.151300 -36.325100 1.318200 
52.198932 17.260072 17.586176 -177.034707 -46.159212 176.899678 3.528289 -0.114083 -1.830524 -18.083873 6.853827 2.327467 -0.399414 3.786727 10.260962 -0.286095 3.325290 -2.972499 0.109100 -2.129300 -5.863200 -5.177920 -0.111144 -1.705652 26.688548 2.552685 -3.425247 -0.764012 -9.231216 25.452819 1.337798 -9.699181 -14.688707 -0.037500 -1.249600 3.435900 3.557736 -0.563448 3.951839 1.111119 -0.626013 -0.830090 -3.039665 -0.284104 4.783789 0.246867 1.527071 -6.641372 3.772627 1.308282 15.948554 -1.618100 1.231400 7.109200 -1.670356 -2.030121 -0.119825 -77.116160 -3.533043 29.862473 8.254181 -20.623085 -2.517815 -1.282671 -1.412481 -16.768428 16.714392 8.873423 3.236100 -7.125000 0.000000 0.000000 -7.585900 40.195200 0.904500 4.748802 2.767237 -0.382107 77.493732 3.070230 24.560088 -10.089450 22.784906 -3.143250 1.379379 0.306120 1.962554 -18.047343 -5.730739 2.129300 7.125000 0.000000 0.000000 6.152400 -36.338200 1.316500 
